<svg xmlns="http://www.w3.org/2000/svg"><symbol id="sprite-close" viewBox="0 0 15 16"><title>close</title><path d="M0 1.282L.707.575 14.85 14.717l-.707.708L0 1.282z"/><path d="M15 1.282l-.707-.707L.15 14.717l.707.708L15 1.282z"/></symbol><symbol id="sprite-pin" viewBox="0 0 42 42"><title>pin</title><path d="M33 13.924C33 6.893 27.594 1 20.51 1S8 6.897 8 13.93C8 16.25 8.324 18 9.423 20h-.021l10.695 20.621c.402.551.824-.032.824-.032C20.56 41.13 31.616 20 31.616 20h-.009C32.695 18 33 16.246 33 13.924zm-18.249-.396c0-3.317 2.579-6.004 5.759-6.004 3.179 0 5.76 2.687 5.76 6.004s-2.581 6.005-5.76 6.005c-3.18 0-5.759-2.687-5.759-6.005z"/></symbol></svg>